# xmcd
#
# Track frame offsets:
#	150
#	15431
#	29193
#	43150
#	67699
#	90015
#	101942
#	123450
#	142679
#	161256
#	178624
#	199848
#	214132
#	234001
#	247832
#	259866
#	283586
#	300917
#	314834
#	327629
#
# Disc length: 4624 seconds
#
# Revision: 1
# Processed by: cddbd v1.5.2PL0 Copyright (c) Steve Scherf et al.
# Submitted via: EasyCDDAExtractor 5.1.0
#
DISCID=0d120e14
DTITLE=Various Artist - BluesFeast
DYEAR=1900
DGENRE=
TTITLE0=John Lee Hooker - This Is Hip
TTITLE1=Duke Robillard - Midnight Cannonball
TTITLE2=Etta James - I Just Want To Make Love To You
TTITLE3=B.B. King - The Thrill Is Gone
TTITLE4=Willie Dixon - Spoonful
TTITLE5=Little Walter - My Babe
TTITLE6=Bonnie Raitt - Gnawin' On It
TTITLE7=Albert Collins - A Good Fool Is Hard To Find
TTITLE8=The Robert Cray Band - Smoking Gun
TTITLE9=Muddy Waters - I'm A King Bee
TTITLE10=Koko Taylor - Mother Nature
TTITLE11=Manfred Mann - I've Got My Mojo Working
TTITLE12=Gary Moore - Oh Pretty Woman
TTITLE13=Chuck Berry - Wee Wee Hours
TTITLE14=Aretha Franklin - You'll Lose A Good Thing
TTITLE15=Johnnie Taylor - Last Two Dollars
TTITLE16=Hound Dog Taylor - She's Gone
TTITLE17=Howlin' Wolf - Smolestack Lightnin'
TTITLE18=Betty James - I'm A Little Mixed Up
TTITLE19=The Allman Brothers - Statesboro Blues (live at fillmore east)
EXTD=
EXTT0=
EXTT1=
EXTT2=
EXTT3=
EXTT4=
EXTT5=
EXTT6=
EXTT7=
EXTT8=
EXTT9=
EXTT10=
EXTT11=
EXTT12=
EXTT13=
EXTT14=
EXTT15=
EXTT16=
EXTT17=
EXTT18=
EXTT19=
PLAYORDER=
